<?xml version="1.0" encoding="utf-8"?>
<svg viewBox="0 0 45 45" xmlns="http://www.w3.org/2000/svg">
  <ellipse style="fill: #000;" cx="22.5" cy="22.5" rx="22.5" ry="22.5" transform="matrix(1, 0, 0, 1, 3.552713678800501e-15, 1.7763568394002505e-15)"/>
  <g fill="#fff" stroke="#000" style="opacity: 1; fill-opacity: 1; fill-rule: evenodd; stroke-width: 1.5; stroke-linecap: round; stroke-linejoin: round; stroke-miterlimit: 4; stroke-dasharray: none; stroke-opacity: 1; transform-origin: 22.5px 22.2px;" transform="matrix(0.996396958828, 0, 0, 0.996396958828, -0.046832002189, -0.133931997246)">
    <path d="M 31 13.211 L 31 34.7 L 14 34.7 L 14 13.211 Z" style="stroke-linecap:butt;stroke-linejoin:miter"/>
    <path d="M 11 10.211 L 11 5.211 L 15 5.211 L 15 7.211 L 20 7.211 L 20 5.211 L 25 5.211 L 25 7.211 L 30 7.211 L 30 5.211 L 34 5.211 L 34 10.211 L 31 13.411 L 14 13.411 L 11 10.211 Z" style="stroke-linecap:butt"/>
    <path d="M 31 29.5 L 32.5 36.21 L 12.5 36.21 L 14 29.5" style=""/>
    <path d="M 9.5 40.054 L 10.685 35.4 L 34.459 35.4 L 35.594 40.06 L 9.5 40.054 Z"/>
  </g>
  <path style="stroke: #000; fill: none; stroke-width: 5px;" d="M 10.101 16.479 L 18.927 26.598 L 25 21.044 L 36.525 28.464" transform="matrix(1, 0, 0, 1, 3.552713678800501e-15, 1.7763568394002505e-15)"/>
</svg>
