<svg viewBox="0 0 192.413 192.413" width="128px" height="128px" xmlns="http://www.w3.org/2000/svg" xmlns:bx="https://boxy-svg.com">
  <defs>
    <bx:grid x="0" y="0" width="5.0635" height="5.0635"></bx:grid>
  </defs>
  <ellipse style="stroke: rgba(0, 0, 0, 0);" cx="96.207" cy="96.207" rx="96.207" ry="96.207"></ellipse>
  <path style="fill: rgb(255, 255, 255); stroke: rgb(255, 255, 255);" d="M 65.33 84.037 L 68.893 68.524 L 55.067 55.699 L 55.067 20.254 L 72.789 20.254 L 72.789 37.976 L 81.65 37.976 L 81.65 20.254 L 108.233 20.254 L 108.233 37.976 L 117.095 37.976 L 117.095 20.254 L 134.817 20.254 L 134.817 55.699 L 121.526 68.99 L 128.42 91.87 L 117.095 100.794 L 96.258 91.861 L 90.511 81.585 L 77.808 95.45 L 65.33 84.037 Z"></path>
  <path style="fill: rgb(255, 255, 255); stroke: rgb(255, 255, 255);" d="M 46.357 161.784 L 61.827 114.387 L 77.941 127.885 L 90.511 114.02 L 96.459 124.357 L 117.095 133.017 L 130.727 126.071 L 143.678 162.032 L 46.357 161.784 Z"></path>
  <path style="fill: rgb(255, 255, 255); stroke: rgb(255, 255, 255);" d="M 33.317 162.019 L 156.969 162.032 L 147.425 144.31 L 42.428 144.31 L 33.317 162.019 Z"></path>
</svg>
