<svg xmlns="http://www.w3.org/2000/svg" viewBox="0 0 45 45" fill="var(--player-color,#fff)" stroke="var(--opponent-color,#000)" style="opacity:1;fill-rule:evenodd;fill-opacity:1;stroke-width:1.5;stroke-linecap:round;stroke-linejoin:round;stroke-miterlimit:4;stroke-dasharray:none;stroke-opacity:1">
    <g style="visibility:hidden" transform="matrix(0.539996, 0, 0, 0.539996, -81.501542, -26.843182)">
        <title>
            Elephant
        </title>
        <path d="M 208.13 104.244 C 208.397 102.244 208.663 100.11 208.93 98.11 C 211.463 102.11 206.93 110.11 209.73 112.91 C 210.13 113.31 215.063 115.044 215.063 114.777 C 216.797 109.044 219.863 103.177 220.397 97.177 C 220.797 92.244 220.663 86.91 217.997 82.644 C 211.73 72.644 198.397 67.444 186.13 68.244 C 178.13 68.777 170.663 72.91 166.53 79.844 C 164.397 83.444 162.797 87.577 162.53 91.71 C 162.397 96.11 163.197 100.51 164.663 104.644 C 165.997 108.377 166.797 111.71 167.73 115.577 C 167.73 115.577 178.397 115.31 178.397 115.71 C 178.397 114.91 177.73 108.11 178.93 108.11 C 180.263 107.977 195.73 107.31 195.73 108.51 C 195.73 110.777 195.597 113.177 195.863 115.444 C 197.197 115.31 206.797 116.377 206.797 114.377 C 206.93 110.91 207.597 107.577 208.13 104.244 Z" />
        <path d="M 201.597 80.91 C 199.863 76.377 191.997 74.244 187.863 76.11 C 181.997 78.91 179.197 89.444 185.463 93.177 C 190.663 96.244 195.063 95.977 200.797 94.244" />
        <path d="M 206.663 85.977 C 206.663 87.31 207.73 88.377 209.063 88.377 C 210.397 88.377 211.463 87.31 211.463 85.977 C 211.463 84.644 210.397 83.577 209.063 83.577 C 207.73 83.577 206.663 84.644 206.663 85.977" />
        <path d="M 154.797 129.044 L 162.263 127.177 L 156.397 121.577 L 154.797 129.044 Z" />
        <path d="M 230.263 129.044 L 228.663 121.444 L 222.93 127.177 L 230.263 129.044 Z" />
        <path d="M 155.063 54.51 L 157.063 61.977 L 162.53 55.977 L 155.063 54.51 Z" />
        <path d="M 230.263 54.51 L 222.797 55.844 L 228.263 61.844 L 230.263 54.51 Z" />
        <path d="M 150.93 128.51 C 150.93 131.044 152.93 133.044 155.463 133.044 L 229.73 133.044 C 232.263 133.044 234.263 131.044 234.263 128.51 L 234.263 54.244 C 234.263 51.71 232.263 49.71 229.73 49.71 L 155.463 49.71 C 152.93 49.71 150.93 51.71 150.93 54.244 L 150.93 128.51 Z" />
    </g>
    <g style="visibility:hidden" transform="matrix(0.539996, 0, 0, 0.539996, -81.501542, -26.843182)">
        <title>
            Lion
        </title>
        <path d="M 150.93 128.51 C 150.93 131.044 152.93 133.044 155.463 133.044 L 229.73 133.044 C 232.263 133.044 234.263 131.044 234.263 128.51 L 234.263 54.244 C 234.263 51.71 232.263 49.71 229.73 49.71 L 155.463 49.71 C 152.93 49.71 150.93 51.71 150.93 54.244 L 150.93 128.51 Z" />
        <path d="M 189.863 56.777 C 189.863 58.51 191.33 59.977 193.063 59.977 C 194.796 59.977 196.263 58.51 196.263 56.777 C 196.263 55.044 194.796 53.577 193.063 53.577 C 191.196 53.577 189.863 55.044 189.863 56.777" />
        <path d="M 155.596 56.777 C 155.596 58.51 157.063 59.977 158.796 59.977 C 160.53 59.977 161.996 58.51 161.996 56.777 C 161.996 55.044 160.53 53.577 158.796 53.577 C 157.063 53.577 155.596 55.044 155.596 56.777" />
        <path d="M 224.263 56.777 C 224.263 58.51 225.73 59.977 227.463 59.977 C 229.196 59.977 230.663 58.51 230.663 56.777 C 230.663 55.044 229.196 53.577 227.463 53.577 C 225.73 53.577 224.263 55.044 224.263 56.777" />
        <path d="M 189.863 126.244 C 189.863 127.977 191.33 129.444 193.063 129.444 C 194.796 129.444 196.263 127.977 196.263 126.244 C 196.263 124.51 194.796 123.044 193.063 123.044 C 191.196 123.044 189.863 124.377 189.863 126.244" />
        <path d="M 155.596 126.244 C 155.596 127.977 157.063 129.444 158.796 129.444 C 160.53 129.444 161.996 127.977 161.996 126.244 C 161.996 124.51 160.53 123.044 158.796 123.044 C 157.063 123.044 155.596 124.377 155.596 126.244" />
        <path d="M 224.263 126.244 C 224.263 127.977 225.73 129.444 227.463 129.444 C 229.196 129.444 230.663 127.977 230.663 126.244 C 230.663 124.51 229.196 123.044 227.463 123.044 C 225.73 123.044 224.263 124.377 224.263 126.244" />
        <path d="M 155.596 91.044 C 155.596 92.777 157.063 94.244 158.796 94.244 C 160.53 94.244 161.996 92.777 161.996 91.044 C 161.996 89.31 160.53 87.844 158.796 87.844 C 157.063 87.844 155.596 89.31 155.596 91.044" />
        <path d="M 223.063 99.31 C 218.53 96.377 213.196 92.244 212.796 86.644 C 212.663 84.244 221.463 71.577 224.53 71.444 C 218.263 71.71 212.13 71.444 207.063 75.044 C 207.063 75.044 207.196 63.577 207.196 62.91 C 206.796 61.71 193.196 70.51 192.396 71.844 C 192.263 71.977 178.93 61.444 177.863 60.777 C 177.463 64.644 177.063 69.31 177.063 73.31 C 171.996 71.31 166.53 72.244 161.196 72.51 C 161.463 72.51 171.996 82.51 171.863 83.31 C 170.663 89.177 166.13 93.044 163.196 97.977 C 167.196 99.444 171.063 101.444 174.93 103.31 C 174.13 102.91 169.063 118.11 168.796 119.844 C 174.53 112.377 192.13 111.577 200.663 113.044 C 206.396 113.977 211.33 117.31 216.53 119.577 C 215.196 113.71 213.33 109.977 211.33 104.11 C 215.33 101.977 219.73 99.977 224.396 100.11 C 223.863 99.844 223.463 99.577 223.063 99.31 Z" />
        <path d="M 178.396 86.244 C 178.13 86.91 177.996 87.71 177.863 88.51 C 176.796 96.51 178.93 105.71 187.73 107.977 C 195.063 109.844 203.596 105.577 206.263 98.377 C 209.063 90.377 206.13 80.91 197.596 78.644 C 189.996 76.644 180.93 78.51 178.396 86.244 Z" />
        <path d="M 196.13 89.71 C 196.13 90.51 196.796 91.044 197.463 91.044 C 198.263 91.044 198.796 90.377 198.796 89.71 C 198.796 88.91 198.13 88.377 197.463 88.377 C 196.663 88.244 196.13 88.91 196.13 89.71" />
        <path d="M 186.53 89.577 C 186.53 90.377 187.196 90.91 187.863 90.91 C 188.53 90.91 189.196 90.244 189.196 89.577 C 189.196 88.777 188.53 88.244 187.863 88.244 C 187.196 88.244 186.53 88.91 186.53 89.577" />
        <path d="M 197.196 99.177 C 193.996 99.177 192.796 98.377 192.396 94.91" />
        <path d="M 188.396 100.244 C 190.93 100.244 193.463 97.577 192.53 94.777" />
        <path d="M 194.93 99.444 C 193.996 100.51 191.196 101.577 190.663 99.444" />
    </g>
    <g style="visibility:hidden" transform="matrix(0.539996, 0, 0, 0.539996, -32.281483, -23.388831)">
        <title>
            Hen
        </title>
        <path d="M 59.781 122.113 C 59.781 124.646 61.781 126.646 64.315 126.646 L 138.581 126.646 C 141.115 126.646 143.115 124.646 143.115 122.113 L 143.115 47.846 C 143.115 45.313 141.115 43.313 138.581 43.313 L 64.315 43.313 C 61.781 43.313 59.781 45.313 59.781 47.846 L 59.781 122.113 Z" />
        <path d="M 98.181 50.646 C 98.181 52.379 99.648 53.713 101.381 53.713 C 103.115 53.713 104.581 52.246 104.581 50.646 C 104.581 48.913 103.115 47.446 101.381 47.446 C 99.515 47.446 98.181 48.913 98.181 50.646" />
        <path d="M 64.181 50.646 C 64.181 52.379 65.648 53.713 67.381 53.713 C 69.115 53.713 70.581 52.246 70.581 50.646 C 70.581 48.913 69.115 47.446 67.381 47.446 C 65.648 47.446 64.181 48.913 64.181 50.646" />
        <path d="M 132.181 50.646 C 132.181 52.379 133.648 53.713 135.381 53.713 C 137.115 53.713 138.448 52.246 138.448 50.646 C 138.448 48.913 136.981 47.446 135.381 47.446 C 133.648 47.446 132.181 48.913 132.181 50.646" />
        <path d="M 98.181 120.246 C 98.181 121.979 99.648 123.313 101.381 123.313 C 103.115 123.313 104.581 121.846 104.581 120.246 C 104.581 118.513 103.115 117.046 101.381 117.046 C 99.515 117.046 98.181 118.513 98.181 120.246" />
        <path d="M 64.181 85.713 C 64.181 87.446 65.648 88.913 67.248 88.913 C 68.981 88.913 70.315 87.446 70.315 85.713 C 70.315 83.979 68.848 82.513 67.248 82.513 C 65.515 82.513 64.181 83.979 64.181 85.713" />
        <path d="M 132.181 85.713 C 132.181 87.446 133.648 88.913 135.381 88.913 C 137.115 88.913 138.448 87.446 138.448 85.713 C 138.448 83.979 136.981 82.513 135.381 82.513 C 133.648 82.513 132.181 83.979 132.181 85.713" />
        <path d="M 100.448 104.246 L 100.448 108.646" />
        <path d="M 103.648 110.246 C 102.581 109.713 101.915 108.779 100.581 109.046" />
        <path d="M 100.448 112.513 L 100.448 109.046" />
        <path d="M 97.381 110.246 C 98.448 109.846 99.515 109.179 100.581 108.779" />
        <path d="M 114.715 67.846 C 114.448 66.113 109.781 57.313 106.848 57.979 C 104.981 58.379 106.181 63.979 106.581 65.446 C 106.181 63.313 103.781 60.513 101.515 60.246 C 101.381 62.246 100.981 65.179 102.315 66.646 C 100.981 65.046 99.515 64.646 97.515 64.113 C 95.781 65.846 98.581 69.179 99.515 69.713" />
        <path d="M 96.048 85.313 C 97.781 84.246 98.715 82.113 99.115 77.313 C 99.515 72.646 100.181 67.579 105.381 65.713 C 112.581 63.046 116.181 68.113 119.115 73.179 C 122.715 79.046 120.581 88.379 118.715 94.513 C 113.515 111.979 75.381 109.446 79.248 87.979 C 84.448 87.579 91.248 88.246 96.048 85.313 Z" />
        <path d="M 120.181 73.713 C 122.715 73.446 124.048 75.713 125.248 77.313 C 124.181 77.713 123.115 77.846 121.915 77.846" />
        <path d="M 112.315 73.846 C 112.315 74.513 112.848 75.046 113.515 75.046 C 114.181 75.046 114.848 74.513 114.848 73.846 C 114.848 73.179 114.315 72.513 113.515 72.513 C 112.848 72.513 112.315 73.046 112.315 73.846" />
    </g>
    <g style="visibility:hidden" transform="matrix(0.539996, 0, 0, 0.539996, -167.430499, -7.245122)">
        <title>
            Chick
        </title>
        <path d="M 355.393 21.95 C 355.393 23.95 353.793 25.417 351.926 25.417 C 349.926 25.417 348.459 23.817 348.459 21.95 C 348.459 19.95 350.059 18.483 351.926 18.483 C 353.793 18.483 355.393 20.083 355.393 21.95" />
        <path d="M 331.126 57.683 C 332.193 57.017 334.459 55.55 334.993 54.483 C 335.659 53.283 335.126 51.417 335.659 50.083 C 336.593 47.55 338.726 44.75 341.659 43.95 C 349.926 41.683 351.393 49.017 351.259 54.483 C 354.726 53.683 358.993 54.617 362.593 54.617 C 365.393 54.617 368.059 54.75 370.726 54.883 C 371.393 54.883 368.993 59.95 368.726 60.217 C 367.126 63.283 365.793 65.683 363.126 67.817 C 354.726 74.617 341.793 72.617 337.926 61.55 C 337.393 60.083 337.793 58.617 336.326 57.95 C 336.326 58.083 331.259 57.683 331.126 57.683 Z" />
        <path d="M 342.593 51.417 C 342.593 52.083 342.059 52.617 341.393 52.617 C 340.726 52.617 340.193 52.083 340.193 51.417 C 340.193 50.75 340.726 50.217 341.393 50.217 C 341.926 50.083 342.593 50.617 342.593 51.417" />
        <path d="M 352.726 71.683 L 352.726 77.817" />
        <path d="M 348.326 79.95 C 349.659 79.283 350.726 77.95 352.459 78.35" />
        <path d="M 352.726 83.017 L 352.726 78.35" />
        <path d="M 356.859 79.95 C 355.393 79.417 353.926 78.483 352.459 78.083" />
        <path d="M 310.059 92.217 C 310.059 94.75 312.059 96.75 314.593 96.75 L 388.859 96.75 C 391.393 96.75 393.393 94.75 393.393 92.217 L 393.393 17.95 C 393.393 15.417 391.393 13.417 388.859 13.417 L 314.593 13.417 C 312.059 13.417 310.059 15.417 310.059 17.95 L 310.059 92.217 Z" />
    </g>
    <g data-original-key="g0" style="" transform="matrix(0.539996, 0, 0, 0.539996, -208.551715, -6.994564)">
        <title>
            Giraffe
        </title>
        <path d="M 409.944 19.62 C 410.344 17.886 410.877 18.686 409.544 17.886 C 409.81 19.753 409.544 19.62 409.277 21.486 C 409.01 22.686 407.81 24.153 407.277 25.353 C 406.344 27.62 405.144 31.353 405.277 33.753 C 405.277 34.82 409.944 31.886 409.944 31.886 C 411.81 31.62 411.81 32.686 412.077 34.286 C 412.344 37.22 411.544 40.153 411.544 42.953 C 411.544 50.953 411.81 59.086 411.944 67.086 C 412.21 75.486 412.477 83.886 412.877 92.286 C 414.877 92.42 416.877 92.42 418.877 92.286 C 419.277 86.686 419.01 81.353 419.144 75.753 C 419.144 75.486 426.744 75.62 427.544 75.62 C 428.21 75.62 437.144 76.02 437.144 76.286 C 437.41 81.62 436.21 86.953 436.61 92.286 C 438.344 92.42 440.344 92.286 442.077 92.02 C 442.61 91.886 444.477 65.753 444.21 64.02 C 442.877 57.753 436.877 57.086 431.677 57.086 C 427.41 57.086 423.277 57.486 418.877 57.22 C 418.477 49.353 417.944 41.486 417.944 33.753 C 417.944 30.82 419.144 27.886 418.744 25.086 C 418.477 23.62 417.81 22.553 417.544 21.22 C 417.277 19.486 417.81 19.62 417.01 17.886 C 416.21 19.353 415.677 18.686 415.677 20.82 C 414.077 20.953 412.477 21.086 411.01 21.22 C 411.01 19.886 410.61 18.42 409.544 17.753 C 410.21 18.153 409.944 19.62 409.277 21.22" />
        <path d="M 449.144 57.886 C 449.277 61.22 442.477 63.62 439.677 63.486" />
        <path d="M 416.877 21.886 C 418.61 21.22 419.81 21.353 421.81 21.486 C 421.41 22.953 419.677 24.553 417.544 24.553" />
        <path d="M 444.21 70.02 C 444.21 71.353 443.01 72.42 441.544 72.42 C 440.077 72.42 438.877 71.353 438.877 70.02 C 438.877 68.686 440.077 67.62 441.544 67.62 C 443.01 67.62 444.21 68.686 444.21 70.02" />
        <path d="M 418.077 57.22 C 418.077 58.153 417.144 58.82 416.077 58.82 C 415.01 58.82 414.077 58.153 414.077 57.22 C 414.077 56.286 415.01 55.62 416.077 55.62 C 417.144 55.62 418.077 56.42 418.077 57.22" />
        <path d="M 415.944 46.286 C 415.944 47.22 415.01 47.886 413.944 47.886 C 412.877 47.886 411.944 47.22 411.944 46.286 C 411.944 45.353 412.877 44.686 413.944 44.686 C 415.01 44.686 415.944 45.353 415.944 46.286" />
        <path d="M 417.41 34.153 C 417.41 35.22 416.61 36.02 415.544 36.02 C 414.477 36.02 413.677 35.22 413.677 34.153 C 413.677 33.086 414.477 32.286 415.544 32.286 C 416.61 32.286 417.41 33.086 417.41 34.153" />
        <path d="M 411.01 24.953 C 411.01 25.22 410.744 25.486 410.477 25.486 C 410.21 25.486 409.944 25.22 409.944 24.953 C 409.944 24.686 410.21 24.42 410.477 24.42 C 410.744 24.42 411.01 24.686 411.01 24.953" />
        <path d="M 429.144 15.886 L 424.744 22.153 L 432.877 22.42 L 429.144 15.886 Z" />
        <path d="M 431.144 60.82 C 431.144 62.02 429.944 62.953 428.477 62.953 C 427.01 62.953 425.81 62.02 425.81 60.82 C 425.81 59.62 427.01 58.686 428.477 58.686 C 429.944 58.686 431.144 59.753 431.144 60.82" />
        <path d="M 431.277 72.953 C 431.277 74.286 430.077 75.353 428.61 75.353 C 427.144 75.353 425.944 74.286 425.944 72.953 C 425.944 71.62 427.144 70.553 428.61 70.553 C 430.077 70.553 431.277 71.62 431.277 72.953" />
        <path d="M 418.21 69.22 C 418.21 70.553 417.01 71.62 415.544 71.62 C 414.077 71.62 412.877 70.553 412.877 69.22 C 412.877 67.886 414.077 66.82 415.544 66.82 C 417.01 66.82 418.21 67.886 418.21 69.22" />
        <path d="M 428.21 93.086 L 432.21 86.553 L 424.077 86.686 L 428.21 93.086 Z" />
        <path d="M 388.477 54.553 L 395.144 58.42 L 394.744 50.286 L 388.477 54.553 Z" />
        <path d="M 466.344 53.886 L 459.944 49.753 L 459.944 57.886 L 466.344 53.886 Z" />
        <path d="M 386.21 91.753 C 386.21 94.286 388.21 96.286 390.744 96.286 L 465.01 96.286 C 467.544 96.286 469.544 94.286 469.544 91.753 L 469.544 17.486 C 469.544 14.953 467.544 12.953 465.01 12.953 L 390.744 12.953 C 388.21 12.953 386.21 14.953 386.21 17.486 L 386.21 91.753 Z" style=""/>
    </g>
</svg>
