<svg viewBox="0 0 45 45" stroke="#000" style="opacity:1;fill-rule:evenodd;fill-opacity:1;stroke-width:1;stroke-linecap:round;stroke-linejoin:round;stroke-miterlimit:4;stroke-dasharray:none;stroke-opacity:1" fill="#fff" xmlns="http://www.w3.org/2000/svg">
  <defs></defs>
  <g style="visibility: hidden;">
    <title>Lion</title>
    <path style="stroke: rgb(0, 0, 0); fill: rgb(195, 132, 89);" d="M 9.734 37.599 C 9.734 37.599 15.316 33.144 23.606 33.933 C 31.896 34.722 35.166 37.712 35.166 37.712 C 35.166 37.712 33.813 31.79 32.798 29.648 C 31.783 27.506 39.6 27.186 39.6 27.186 C 39.6 27.186 34.041 24.162 33.314 20.424 C 32.587 16.686 39.37 11.841 39.37 11.841 C 39.37 11.841 32.552 11.816 31.168 13.131 C 29.784 14.446 30.303 6.867 30.303 6.867 C 30.303 6.867 22.654 10.951 22.654 11.643 C 22.654 12.335 15.386 6.625 15.006 6.314 C 14.626 6.003 13.968 10.916 14.141 11.678 C 14.314 12.44 14.244 12.508 12.064 12.059 C 9.884 11.61 5.973 12.301 5.973 12.301 C 5.973 12.301 11.58 17.665 11.406 17.977 C 11.232 18.289 8.638 24.102 7.184 25.348 C 5.73 26.594 13.033 29.051 13.033 29.051 C 13.033 29.051 9.572 36.044 9.734 37.599 Z"></path>
    <path style="stroke: rgb(0, 0, 0); fill: rgb(245, 224, 111);" d="M 14.66 24.447 C 14.66 24.447 13.691 19.429 16.529 17.387 C 19.367 15.345 21.893 14.722 25.388 15.726 C 28.883 16.73 29.957 19.464 30.13 20.987 C 30.303 22.51 30.822 24.621 29.541 27.251 C 28.26 29.881 25.388 30.712 25.146 30.885 C 24.904 31.058 22.377 32.096 20.543 31.508 C 18.709 30.92 16.909 30.677 16.044 28.877 C 15.179 27.077 14.833 25.14 14.66 24.447 Z"></path>
    <path style="stroke: rgb(0, 0, 0); fill: none;" d="M 25.112 26.766 C 25.112 26.766 22.724 26.974 22.377 24.655 C 22.654 26.697 20.197 27.32 20.197 27.32"></path>
    <path style="stroke: rgb(0, 0, 0); fill: none;" d="M 21.374 26.801 C 21.374 26.801 22.239 28.497 23.762 26.835"></path>
    <ellipse style="stroke: none; fill: rgb(0, 0, 0);" cx="19.982" cy="21.558" rx="0.647" ry="0.647"></ellipse>
    <ellipse style="stroke: none; fill: rgb(0, 0, 0);" cx="25.059" cy="21.59" rx="0.647" ry="0.647"></ellipse>
  </g>
  <g style="visibility: hidden;">
    <title>Hen</title>
    <path style="stroke: rgb(0, 0, 0); fill: none;" d="M 22.016 33.856 L 21.966 37.675"></path>
    <path style="stroke: rgb(0, 0, 0); fill: none;" d="M 20.257 36.218 C 20.257 36.218 21.991 34.736 23.624 36.067"></path>
    <path style="stroke: rgb(0, 0, 0); fill: rgb(255, 212, 91);" d="M 35.359 18.388 C 35.359 18.388 33.902 15.901 32.545 16.529 L 32.998 18.689 C 32.998 18.689 33.968 19.017 35.359 18.388 Z"></path>
    <path style="stroke: rgb(0, 0, 0); fill: rgb(245, 50, 50);" d="M 20.4 11.212 C 20.4 11.212 19.194 12.924 21.847 14.6 L 23.386 13.061 C 23.386 13.061 22.766 11.672 20.4 11.212 Z"></path>
    <path style="stroke: rgb(0, 0, 0); fill: rgb(245, 50, 50);" d="M 22.571 9.214 C 22.571 9.214 21.893 11.947 23.26 12.843 L 25.477 12.062 C 25.477 12.062 24.65 9.639 22.571 9.214 Z"></path>
    <path style="stroke: rgb(0, 0, 0); fill: rgb(245, 50, 50);" d="M 25.086 8.053 C 25.086 8.053 24.558 10.569 25.465 11.809 L 29.279 12.682 C 29.279 12.682 27.016 7.1 25.086 8.053 Z"></path>
    <path style="stroke: rgb(0, 0, 0); fill: rgb(197, 100, 29);" d="M 10.718 23.956 C 10.718 23.956 18.855 24.435 20.291 22.042 C 21.727 19.649 20.77 18.033 21.488 16.058 C 22.206 14.083 24.599 10.135 29.386 12.827 C 34.173 15.519 32.916 23.418 32.796 23.897 C 32.676 24.376 32.677 29.521 28.488 31.854 C 24.299 34.187 17.898 34.906 14.607 32.393 C 11.316 29.88 9.76 27.905 10.718 23.956 Z"></path>
    <ellipse style="stroke: none; fill: rgb(0, 0, 0);" cx="28.867" cy="16.344" rx="0.647" ry="0.647"></ellipse>
  </g>
  <g style="fill: rgb(255, 233, 0); visibility: hidden;">
    <title>Giraffe</title>
    <path d="M 14.49 42.833 C 14.49 42.833 12.983 13.222 13.958 10.828 C 14.933 8.434 10.459 12.115 10.187 11.161 C 9.915 10.207 11.515 5.678 12.332 4.929 C 13.149 4.18 12.617 2.869 12.617 2.869 C 12.617 2.869 13.412 4.254 14.263 4.322 C 15.114 4.39 15.888 3.772 16.433 2.75 C 16.978 1.728 17.737 6.26 17.305 9.618 C 16.873 12.976 16.605 23.178 17.716 24.011 C 18.827 24.844 28.828 23.548 29.846 24.937 C 30.864 26.326 31.143 26.511 31.143 27.808 C 31.143 29.105 30.587 42.716 30.217 42.623 C 29.847 42.53 27.365 43.029 27.318 42.614 C 27.271 42.199 27.873 34.117 27.411 34.071 C 26.949 34.025 18.701 33.285 18.409 33.57 C 18.117 33.855 17.852 42.568 17.575 42.752 C 17.298 42.936 14.573 42.845 14.49 42.833 Z"></path>
    <ellipse cx="13.245" cy="6.537" rx="0.159" ry="0.159" style="fill: rgb(216, 216, 216); stroke: rgb(0, 0, 0); stroke-width: 1px;"></ellipse>
    <path d="M 22.185 24.377 C 22.48 24.337 22.993 24.333 23.334 24.441 C 23.659 24.544 24.008 24.697 24.196 24.984 C 24.411 25.313 24.529 26.038 24.452 26.388 C 24.391 26.663 24.155 26.839 23.973 26.995 C 23.801 27.142 23.632 27.256 23.398 27.314 C 23.119 27.383 22.65 27.391 22.377 27.314 C 22.149 27.25 21.936 27.043 21.834 26.963 C 21.779 26.92 21.783 26.923 21.738 26.867 C 21.65 26.757 21.405 26.498 21.323 26.261 C 21.235 26.004 21.201 25.649 21.259 25.367 C 21.318 25.085 21.498 24.731 21.674 24.569 C 21.819 24.436 21.966 24.407 22.185 24.377 Z M 29.208 29.395 C 29.441 29.355 29.93 29.308 30.229 29.395 C 30.511 29.478 30.819 29.642 30.964 29.874 C 31.114 30.115 31.124 30.485 31.091 30.832 C 31.053 31.231 30.864 31.89 30.676 32.141 C 30.55 32.31 30.432 32.347 30.229 32.396 C 29.949 32.464 29.375 32.49 29.08 32.396 C 28.841 32.32 28.682 32.208 28.538 31.981 C 28.342 31.674 28.085 30.994 28.154 30.577 C 28.221 30.18 28.684 29.699 28.889 29.523 C 29.009 29.419 29.057 29.421 29.208 29.395 Z M 15.252 28.936 C 15.503 28.886 16.152 28.835 16.529 28.936 C 16.88 29.029 17.264 29.185 17.454 29.478 C 17.667 29.806 17.736 30.491 17.646 30.883 C 17.565 31.231 17.355 31.564 17.039 31.745 C 16.666 31.958 15.888 32.049 15.443 31.936 C 15.043 31.835 14.64 31.528 14.454 31.202 C 14.268 30.878 14.231 30.349 14.326 29.989 C 14.419 29.638 14.821 29.223 14.996 29.063 C 15.097 28.972 15.114 28.963 15.252 28.936 Z M 15.852 22.59 C 16.062 22.563 16.314 22.57 16.554 22.654 C 16.833 22.751 17.253 22.948 17.416 23.196 C 17.571 23.433 17.606 23.804 17.544 24.09 C 17.478 24.39 17.266 24.786 17.001 24.952 C 16.728 25.123 16.234 25.165 15.916 25.08 C 15.609 24.997 15.283 24.742 15.118 24.473 C 14.95 24.201 14.875 23.744 14.926 23.452 C 14.972 23.19 15.171 22.924 15.341 22.781 C 15.488 22.658 15.662 22.614 15.852 22.59 Z M 14.907 16.793 C 15.218 16.764 15.785 16.769 16.024 16.984 C 16.266 17.202 16.392 17.791 16.343 18.102 C 16.301 18.372 16.091 18.591 15.865 18.772 C 15.609 18.976 15.162 19.241 14.843 19.219 C 14.536 19.197 14.143 18.918 13.981 18.676 C 13.831 18.452 13.809 18.114 13.854 17.846 C 13.9 17.571 14.078 17.224 14.269 17.048 C 14.439 16.89 14.653 16.816 14.907 16.793 Z M 15.66 10.259 C 15.927 10.242 16.422 10.249 16.65 10.451 C 16.893 10.666 17.06 11.229 17.033 11.568 C 17.008 11.884 16.794 12.255 16.554 12.43 C 16.315 12.605 15.885 12.666 15.596 12.622 C 15.324 12.58 15.018 12.429 14.862 12.207 C 14.693 11.965 14.613 11.485 14.671 11.185 C 14.724 10.905 14.965 10.604 15.15 10.451 C 15.303 10.324 15.452 10.273 15.66 10.259 Z M 22.756 30.824 C 23.025 30.774 23.271 30.786 23.514 30.885 C 23.784 30.995 24.122 31.309 24.287 31.506 C 24.409 31.653 24.456 31.76 24.499 31.93 C 24.549 32.132 24.584 32.413 24.529 32.657 C 24.469 32.923 24.342 33.272 24.12 33.461 C 23.884 33.661 23.429 33.742 23.12 33.794 C 22.849 33.839 22.607 33.858 22.362 33.794 C 22.106 33.727 21.796 33.562 21.62 33.385 C 21.461 33.226 21.373 33.018 21.317 32.809 C 21.259 32.594 21.227 32.35 21.286 32.112 C 21.354 31.842 21.522 31.491 21.756 31.279 C 22.003 31.054 22.445 30.882 22.756 30.824 Z" fill-color="var(--opponent-color,#000)" stroke-width="0" fill="var(--opponent-color,#000)"></path>
    <path d="M 28.9 27.223 C 28.9 27.223 33.292 27.147 34.018 24.091" fill-opacity="0"></path>
    <path d="M 16.624 4.848 C 17.036 4.641 17.392 4.666 17.892 4.666 C 18.076 4.666 19.431 4.259 19.431 4.259 C 19.431 4.259 19.304 4.65 19.295 4.666 C 19.102 5.054 18.504 5.66 18.254 6.161 C 18.064 6.54 16.941 6.179 16.941 6.885"></path>
  </g>
  <g style="visibility: hidden;">
    <title>Elephant</title>
    <path style="fill: rgb(170, 190, 192);" d="M 9.253 35.484 C 9.253 35.484 6.162 26.996 6.293 24.471 C 6.424 21.946 6.771 16.592 10.297 13.937 C 13.823 11.282 14.737 10.977 16.957 10.367 C 19.177 9.757 24.053 8.931 30.582 12.587 C 37.111 16.243 37.286 19.552 37.503 21.467 C 37.72 23.382 37.721 27.126 36.894 28.693 C 36.067 30.26 34.5 34.787 34.63 35.048 C 34.76 35.309 32.149 34.134 32.149 34.134 C 32.149 34.134 31.061 33.656 31.496 31.436 C 31.931 29.216 31.714 26.865 31.366 25.82 C 30.974 26.69 29.755 34.831 29.886 35.136 C 30.017 35.441 24.88 35.179 24.488 35.179 C 24.096 35.179 24.749 32.132 24.488 31.871 C 24.227 31.61 15.753 31.583 14.911 31.392 C 14.439 31.877 14.737 35.397 14.737 35.397 L 9.253 35.484 Z"></path>
    <path style="stroke: rgb(0, 0, 0); fill: none;" d="M 27.056 23.948 C 27.056 23.948 24.075 24.955 22.355 24.732 C 20.635 24.509 17.904 23.996 17.262 22.077 C 16.62 20.158 16.721 18.729 17.436 17.114 C 18.151 15.499 20.256 13.975 21.746 13.85 C 23.236 13.725 27.176 15.314 27.437 16.751"></path>
    <ellipse style="stroke: none; fill: rgb(0, 0, 0);" cx="31.424" cy="19.75" rx="1.431" ry="1.431"></ellipse>
  </g>
  <g style="">
    <title>Chick</title>
    <path style="stroke: rgb(0, 0, 0); fill: rgb(248, 209, 72);" d="M 13.67 21.744 C 13.67 21.744 13.082 18.109 16.77 16.559 C 20.458 15.009 22.032 18.685 22.03 19.438 C 22.028 20.191 22.416 22.097 22.416 22.097 C 22.416 22.097 23.482 21.735 25.086 22.002 C 26.69 22.269 32.326 22.546 32.593 22.386 C 32.86 22.226 33.181 22.279 32.647 23.241 C 32.113 24.203 29.653 30.992 23.238 31.473 C 16.823 31.954 14.792 25.433 14.792 24.631 C 14.792 23.829 11.585 23.936 11.585 23.936 L 13.67 21.744 Z"></path>
    <path style="stroke: rgb(0, 0, 0); fill: none;" d="M 23.131 31.464 L 22.972 37.682"></path>
    <path style="stroke: rgb(0, 0, 0); fill: none;" d="M 20.529 36 C 20.529 36 22.687 33.938 25.129 35.905"></path>
    <ellipse style="stroke: none; fill: rgb(0, 0, 0);" cx="17.619" cy="20.401" rx="0.928" ry="0.928"></ellipse>
  </g>
  <g style="pointer-events: none; visibility: hidden;" transform="matrix(0.539996, 0, 0, 0.539996, -81.501542, -26.843182)">
    <title>
            Lion
        </title>
    <path d="M 150.93 128.51 C 150.93 131.044 152.93 133.044 155.463 133.044 L 229.73 133.044 C 232.263 133.044 234.263 131.044 234.263 128.51 L 234.263 54.244 C 234.263 51.71 232.263 49.71 229.73 49.71 L 155.463 49.71 C 152.93 49.71 150.93 51.71 150.93 54.244 L 150.93 128.51 Z" style="stroke: rgba(0, 0, 0, 0.32);"></path>
    <path d="M 189.863 56.777 C 189.863 58.51 191.33 59.977 193.063 59.977 C 194.796 59.977 196.263 58.51 196.263 56.777 C 196.263 55.044 194.796 53.577 193.063 53.577 C 191.196 53.577 189.863 55.044 189.863 56.777" style="stroke: rgba(0, 0, 0, 0.32);"></path>
    <path d="M 155.596 56.777 C 155.596 58.51 157.063 59.977 158.796 59.977 C 160.53 59.977 161.996 58.51 161.996 56.777 C 161.996 55.044 160.53 53.577 158.796 53.577 C 157.063 53.577 155.596 55.044 155.596 56.777" style="stroke: rgba(0, 0, 0, 0.32);"></path>
    <path d="M 224.263 56.777 C 224.263 58.51 225.73 59.977 227.463 59.977 C 229.196 59.977 230.663 58.51 230.663 56.777 C 230.663 55.044 229.196 53.577 227.463 53.577 C 225.73 53.577 224.263 55.044 224.263 56.777" style="stroke: rgba(0, 0, 0, 0.32);"></path>
    <path d="M 189.863 126.244 C 189.863 127.977 191.33 129.444 193.063 129.444 C 194.796 129.444 196.263 127.977 196.263 126.244 C 196.263 124.51 194.796 123.044 193.063 123.044 C 191.196 123.044 189.863 124.377 189.863 126.244" style="stroke: rgba(0, 0, 0, 0.32);"></path>
    <path d="M 155.596 126.244 C 155.596 127.977 157.063 129.444 158.796 129.444 C 160.53 129.444 161.996 127.977 161.996 126.244 C 161.996 124.51 160.53 123.044 158.796 123.044 C 157.063 123.044 155.596 124.377 155.596 126.244" style="stroke: rgba(0, 0, 0, 0.32);"></path>
    <path d="M 224.263 126.244 C 224.263 127.977 225.73 129.444 227.463 129.444 C 229.196 129.444 230.663 127.977 230.663 126.244 C 230.663 124.51 229.196 123.044 227.463 123.044 C 225.73 123.044 224.263 124.377 224.263 126.244" style="stroke: rgba(0, 0, 0, 0.32);"></path>
    <path d="M 155.596 91.044 C 155.596 92.777 157.063 94.244 158.796 94.244 C 160.53 94.244 161.996 92.777 161.996 91.044 C 161.996 89.31 160.53 87.844 158.796 87.844 C 157.063 87.844 155.596 89.31 155.596 91.044" style="stroke: rgba(0, 0, 0, 0.32);"></path>
    <path d="M 223.063 99.31 C 218.53 96.377 213.196 92.244 212.796 86.644 C 212.663 84.244 221.463 71.577 224.53 71.444 C 218.263 71.71 212.13 71.444 207.063 75.044 C 207.063 75.044 207.196 63.577 207.196 62.91 C 206.796 61.71 193.196 70.51 192.396 71.844 C 192.263 71.977 178.93 61.444 177.863 60.777 C 177.463 64.644 177.063 69.31 177.063 73.31 C 171.996 71.31 166.53 72.244 161.196 72.51 C 161.463 72.51 171.996 82.51 171.863 83.31 C 170.663 89.177 166.13 93.044 163.196 97.977 C 167.196 99.444 171.063 101.444 174.93 103.31 C 174.13 102.91 169.063 118.11 168.796 119.844 C 174.53 112.377 192.13 111.577 200.663 113.044 C 206.396 113.977 211.33 117.31 216.53 119.577 C 215.196 113.71 213.33 109.977 211.33 104.11 C 215.33 101.977 219.73 99.977 224.396 100.11 C 223.863 99.844 223.463 99.577 223.063 99.31 Z" style="stroke: rgba(0, 0, 0, 0.32);"></path>
    <path d="M 178.396 86.244 C 178.13 86.91 177.996 87.71 177.863 88.51 C 176.796 96.51 178.93 105.71 187.73 107.977 C 195.063 109.844 203.596 105.577 206.263 98.377 C 209.063 90.377 206.13 80.91 197.596 78.644 C 189.996 76.644 180.93 78.51 178.396 86.244 Z" style="stroke: rgba(0, 0, 0, 0.32);"></path>
    <path d="M 196.13 89.71 C 196.13 90.51 196.796 91.044 197.463 91.044 C 198.263 91.044 198.796 90.377 198.796 89.71 C 198.796 88.91 198.13 88.377 197.463 88.377 C 196.663 88.244 196.13 88.91 196.13 89.71" style="stroke: rgba(0, 0, 0, 0.32);"></path>
    <path d="M 186.53 89.577 C 186.53 90.377 187.196 90.91 187.863 90.91 C 188.53 90.91 189.196 90.244 189.196 89.577 C 189.196 88.777 188.53 88.244 187.863 88.244 C 187.196 88.244 186.53 88.91 186.53 89.577" style="stroke: rgba(0, 0, 0, 0.32);"></path>
    <path d="M 197.196 99.177 C 193.996 99.177 192.796 98.377 192.396 94.91" style="stroke: rgba(0, 0, 0, 0.32);"></path>
    <path d="M 188.396 100.244 C 190.93 100.244 193.463 97.577 192.53 94.777" style="stroke: rgba(0, 0, 0, 0.32);"></path>
    <path d="M 194.93 99.444 C 193.996 100.51 191.196 101.577 190.663 99.444" style="stroke: rgba(0, 0, 0, 0.32);"></path>
  </g>
  <g style="pointer-events: none; visibility: hidden;" transform="matrix(0.539996, 0, 0, 0.539996, -32.281483, -23.388831)">
    <title>
            Hen
        </title>
    <path d="M 59.781 122.113 C 59.781 124.646 61.781 126.646 64.315 126.646 L 138.581 126.646 C 141.115 126.646 143.115 124.646 143.115 122.113 L 143.115 47.846 C 143.115 45.313 141.115 43.313 138.581 43.313 L 64.315 43.313 C 61.781 43.313 59.781 45.313 59.781 47.846 L 59.781 122.113 Z" style="stroke: rgba(0, 0, 0, 0.247);"></path>
    <path d="M 98.181 50.646 C 98.181 52.379 99.648 53.713 101.381 53.713 C 103.115 53.713 104.581 52.246 104.581 50.646 C 104.581 48.913 103.115 47.446 101.381 47.446 C 99.515 47.446 98.181 48.913 98.181 50.646" style="stroke: rgba(0, 0, 0, 0.247);"></path>
    <path d="M 64.181 50.646 C 64.181 52.379 65.648 53.713 67.381 53.713 C 69.115 53.713 70.581 52.246 70.581 50.646 C 70.581 48.913 69.115 47.446 67.381 47.446 C 65.648 47.446 64.181 48.913 64.181 50.646" style="stroke: rgba(0, 0, 0, 0.247);"></path>
    <path d="M 132.181 50.646 C 132.181 52.379 133.648 53.713 135.381 53.713 C 137.115 53.713 138.448 52.246 138.448 50.646 C 138.448 48.913 136.981 47.446 135.381 47.446 C 133.648 47.446 132.181 48.913 132.181 50.646" style="stroke: rgba(0, 0, 0, 0.247);"></path>
    <path d="M 98.181 120.246 C 98.181 121.979 99.648 123.313 101.381 123.313 C 103.115 123.313 104.581 121.846 104.581 120.246 C 104.581 118.513 103.115 117.046 101.381 117.046 C 99.515 117.046 98.181 118.513 98.181 120.246" style="stroke: rgba(0, 0, 0, 0.247);"></path>
    <path d="M 64.181 85.713 C 64.181 87.446 65.648 88.913 67.248 88.913 C 68.981 88.913 70.315 87.446 70.315 85.713 C 70.315 83.979 68.848 82.513 67.248 82.513 C 65.515 82.513 64.181 83.979 64.181 85.713" style="stroke: rgba(0, 0, 0, 0.247);"></path>
    <path d="M 132.181 85.713 C 132.181 87.446 133.648 88.913 135.381 88.913 C 137.115 88.913 138.448 87.446 138.448 85.713 C 138.448 83.979 136.981 82.513 135.381 82.513 C 133.648 82.513 132.181 83.979 132.181 85.713" style="stroke: rgba(0, 0, 0, 0.247);"></path>
    <path d="M 100.448 104.246 L 100.448 108.646" style="stroke: rgba(0, 0, 0, 0.247);"></path>
    <path d="M 103.648 110.246 C 102.581 109.713 101.915 108.779 100.581 109.046" style="stroke: rgba(0, 0, 0, 0.247);"></path>
    <path d="M 100.448 112.513 L 100.448 109.046" style="stroke: rgba(0, 0, 0, 0.247);"></path>
    <path d="M 97.381 110.246 C 98.448 109.846 99.515 109.179 100.581 108.779" style="stroke: rgba(0, 0, 0, 0.247);"></path>
    <path d="M 114.715 67.846 C 114.448 66.113 109.781 57.313 106.848 57.979 C 104.981 58.379 106.181 63.979 106.581 65.446 C 106.181 63.313 103.781 60.513 101.515 60.246 C 101.381 62.246 100.981 65.179 102.315 66.646 C 100.981 65.046 99.515 64.646 97.515 64.113 C 95.781 65.846 98.581 69.179 99.515 69.713" style="stroke: rgba(0, 0, 0, 0.247);"></path>
    <path d="M 96.048 85.313 C 97.781 84.246 98.715 82.113 99.115 77.313 C 99.515 72.646 100.181 67.579 105.381 65.713 C 112.581 63.046 116.181 68.113 119.115 73.179 C 122.715 79.046 120.581 88.379 118.715 94.513 C 113.515 111.979 75.381 109.446 79.248 87.979 C 84.448 87.579 91.248 88.246 96.048 85.313 Z" style="stroke: rgba(0, 0, 0, 0.247);"></path>
    <path d="M 120.181 73.713 C 122.715 73.446 124.048 75.713 125.248 77.313 C 124.181 77.713 123.115 77.846 121.915 77.846" style="stroke: rgba(0, 0, 0, 0.247);"></path>
    <path d="M 112.315 73.846 C 112.315 74.513 112.848 75.046 113.515 75.046 C 114.181 75.046 114.848 74.513 114.848 73.846 C 114.848 73.179 114.315 72.513 113.515 72.513 C 112.848 72.513 112.315 73.046 112.315 73.846" style="stroke: rgba(0, 0, 0, 0.247);"></path>
  </g>
  <g data-original-key="g0" style="pointer-events: none; visibility: hidden;" transform="matrix(0.539996, 0, 0, 0.539996, -208.551715, -6.994564)">
    <title>
            Giraffe
        </title>
    <path d="M 409.944 19.62 C 410.344 17.886 410.877 18.686 409.544 17.886 C 409.81 19.753 409.544 19.62 409.277 21.486 C 409.01 22.686 407.81 24.153 407.277 25.353 C 406.344 27.62 405.144 31.353 405.277 33.753 C 405.277 34.82 409.944 31.886 409.944 31.886 C 411.81 31.62 411.81 32.686 412.077 34.286 C 412.344 37.22 411.544 40.153 411.544 42.953 C 411.544 50.953 411.81 59.086 411.944 67.086 C 412.21 75.486 412.477 83.886 412.877 92.286 C 414.877 92.42 416.877 92.42 418.877 92.286 C 419.277 86.686 419.01 81.353 419.144 75.753 C 419.144 75.486 426.744 75.62 427.544 75.62 C 428.21 75.62 437.144 76.02 437.144 76.286 C 437.41 81.62 436.21 86.953 436.61 92.286 C 438.344 92.42 440.344 92.286 442.077 92.02 C 442.61 91.886 444.477 65.753 444.21 64.02 C 442.877 57.753 436.877 57.086 431.677 57.086 C 427.41 57.086 423.277 57.486 418.877 57.22 C 418.477 49.353 417.944 41.486 417.944 33.753 C 417.944 30.82 419.144 27.886 418.744 25.086 C 418.477 23.62 417.81 22.553 417.544 21.22 C 417.277 19.486 417.81 19.62 417.01 17.886 C 416.21 19.353 415.677 18.686 415.677 20.82 C 414.077 20.953 412.477 21.086 411.01 21.22 C 411.01 19.886 410.61 18.42 409.544 17.753 C 410.21 18.153 409.944 19.62 409.277 21.22" style="stroke: rgba(0, 0, 0, 0.165); fill: rgba(255, 255, 255, 0);"></path>
    <path d="M 449.144 57.886 C 449.277 61.22 442.477 63.62 439.677 63.486" style="stroke: rgba(0, 0, 0, 0.165); fill: rgba(255, 255, 255, 0);"></path>
    <path d="M 416.877 21.886 C 418.61 21.22 419.81 21.353 421.81 21.486 C 421.41 22.953 419.677 24.553 417.544 24.553" style="stroke: rgba(0, 0, 0, 0.165); fill: rgba(255, 255, 255, 0);"></path>
    <path d="M 444.21 70.02 C 444.21 71.353 443.01 72.42 441.544 72.42 C 440.077 72.42 438.877 71.353 438.877 70.02 C 438.877 68.686 440.077 67.62 441.544 67.62 C 443.01 67.62 444.21 68.686 444.21 70.02" style="stroke: rgba(0, 0, 0, 0.165); fill: rgba(255, 255, 255, 0);"></path>
    <path d="M 418.077 57.22 C 418.077 58.153 417.144 58.82 416.077 58.82 C 415.01 58.82 414.077 58.153 414.077 57.22 C 414.077 56.286 415.01 55.62 416.077 55.62 C 417.144 55.62 418.077 56.42 418.077 57.22" style="stroke: rgba(0, 0, 0, 0.165); fill: rgba(255, 255, 255, 0);"></path>
    <path d="M 415.944 46.286 C 415.944 47.22 415.01 47.886 413.944 47.886 C 412.877 47.886 411.944 47.22 411.944 46.286 C 411.944 45.353 412.877 44.686 413.944 44.686 C 415.01 44.686 415.944 45.353 415.944 46.286" style="stroke: rgba(0, 0, 0, 0.165); fill: rgba(255, 255, 255, 0);"></path>
    <path d="M 417.41 34.153 C 417.41 35.22 416.61 36.02 415.544 36.02 C 414.477 36.02 413.677 35.22 413.677 34.153 C 413.677 33.086 414.477 32.286 415.544 32.286 C 416.61 32.286 417.41 33.086 417.41 34.153" style="stroke: rgba(0, 0, 0, 0.165); fill: rgba(255, 255, 255, 0);"></path>
    <path d="M 411.01 24.953 C 411.01 25.22 410.744 25.486 410.477 25.486 C 410.21 25.486 409.944 25.22 409.944 24.953 C 409.944 24.686 410.21 24.42 410.477 24.42 C 410.744 24.42 411.01 24.686 411.01 24.953" style="stroke: rgba(0, 0, 0, 0.165); fill: rgba(255, 255, 255, 0);"></path>
    <path d="M 429.144 15.886 L 424.744 22.153 L 432.877 22.42 L 429.144 15.886 Z" style="fill: rgba(255, 255, 255, 0);"></path>
    <path d="M 431.144 60.82 C 431.144 62.02 429.944 62.953 428.477 62.953 C 427.01 62.953 425.81 62.02 425.81 60.82 C 425.81 59.62 427.01 58.686 428.477 58.686 C 429.944 58.686 431.144 59.753 431.144 60.82" style="stroke: rgba(0, 0, 0, 0.165); fill: rgba(255, 255, 255, 0);"></path>
    <path d="M 431.277 72.953 C 431.277 74.286 430.077 75.353 428.61 75.353 C 427.144 75.353 425.944 74.286 425.944 72.953 C 425.944 71.62 427.144 70.553 428.61 70.553 C 430.077 70.553 431.277 71.62 431.277 72.953" style="stroke: rgba(0, 0, 0, 0.165); fill: rgba(255, 255, 255, 0);"></path>
    <path d="M 418.21 69.22 C 418.21 70.553 417.01 71.62 415.544 71.62 C 414.077 71.62 412.877 70.553 412.877 69.22 C 412.877 67.886 414.077 66.82 415.544 66.82 C 417.01 66.82 418.21 67.886 418.21 69.22" style="stroke: rgba(0, 0, 0, 0.165); fill: rgba(255, 255, 255, 0);"></path>
    <path d="M 428.21 93.086 L 432.21 86.553 L 424.077 86.686 L 428.21 93.086 Z" style="fill: rgba(255, 255, 255, 0);"></path>
    <path d="M 388.477 54.553 L 395.144 58.42 L 394.744 50.286 L 388.477 54.553 Z" style="fill: rgba(255, 255, 255, 0);"></path>
    <path d="M 466.344 53.886 L 459.944 49.753 L 459.944 57.886 L 466.344 53.886 Z" style="fill: rgba(255, 255, 255, 0);"></path>
  </g>
  <g style="pointer-events: none; visibility: hidden;" transform="matrix(0.539996, 0, 0, 0.539996, -81.501542, -26.843182)">
    <title>
            Elephant
        </title>
    <path d="M 208.13 104.244 C 208.397 102.244 208.663 100.11 208.93 98.11 C 211.463 102.11 206.93 110.11 209.73 112.91 C 210.13 113.31 215.063 115.044 215.063 114.777 C 216.797 109.044 219.863 103.177 220.397 97.177 C 220.797 92.244 220.663 86.91 217.997 82.644 C 211.73 72.644 198.397 67.444 186.13 68.244 C 178.13 68.777 170.663 72.91 166.53 79.844 C 164.397 83.444 162.797 87.577 162.53 91.71 C 162.397 96.11 163.197 100.51 164.663 104.644 C 165.997 108.377 166.797 111.71 167.73 115.577 C 167.73 115.577 178.397 115.31 178.397 115.71 C 178.397 114.91 177.73 108.11 178.93 108.11 C 180.263 107.977 195.73 107.31 195.73 108.51 C 195.73 110.777 195.597 113.177 195.863 115.444 C 197.197 115.31 206.797 116.377 206.797 114.377 C 206.93 110.91 207.597 107.577 208.13 104.244 Z" style="stroke: rgba(0, 0, 0, 0.396);"></path>
    <path d="M 201.597 80.91 C 199.863 76.377 191.997 74.244 187.863 76.11 C 181.997 78.91 179.197 89.444 185.463 93.177 C 190.663 96.244 195.063 95.977 200.797 94.244" style="stroke: rgba(0, 0, 0, 0.396);"></path>
    <path d="M 206.663 85.977 C 206.663 87.31 207.73 88.377 209.063 88.377 C 210.397 88.377 211.463 87.31 211.463 85.977 C 211.463 84.644 210.397 83.577 209.063 83.577 C 207.73 83.577 206.663 84.644 206.663 85.977" style="stroke: rgba(0, 0, 0, 0.396);"></path>
    <path d="M 154.797 129.044 L 162.263 127.177 L 156.397 121.577 L 154.797 129.044 Z" style="stroke: rgba(0, 0, 0, 0.396);"></path>
    <path d="M 230.263 129.044 L 228.663 121.444 L 222.93 127.177 L 230.263 129.044 Z" style="stroke: rgba(0, 0, 0, 0.396);"></path>
    <path d="M 155.063 54.51 L 157.063 61.977 L 162.53 55.977 L 155.063 54.51 Z" style="stroke: rgba(0, 0, 0, 0.396);"></path>
    <path d="M 230.263 54.51 L 222.797 55.844 L 228.263 61.844 L 230.263 54.51 Z" style="stroke: rgba(0, 0, 0, 0.396);"></path>
  </g>
  <g style="pointer-events: none; visibility: hidden;" transform="matrix(0.539996, 0, 0, 0.539996, -167.430499, -7.245122)">
    <title>
            Chick
        </title>
    <path d="M 355.393 21.95 C 355.393 23.95 353.793 25.417 351.926 25.417 C 349.926 25.417 348.459 23.817 348.459 21.95 C 348.459 19.95 350.059 18.483 351.926 18.483 C 353.793 18.483 355.393 20.083 355.393 21.95" style="stroke: rgba(0, 0, 0, 0.184);"></path>
    <path d="M 331.126 57.683 C 332.193 57.017 334.459 55.55 334.993 54.483 C 335.659 53.283 335.126 51.417 335.659 50.083 C 336.593 47.55 338.726 44.75 341.659 43.95 C 349.926 41.683 351.393 49.017 351.259 54.483 C 354.726 53.683 358.993 54.617 362.593 54.617 C 365.393 54.617 368.059 54.75 370.726 54.883 C 371.393 54.883 368.993 59.95 368.726 60.217 C 367.126 63.283 365.793 65.683 363.126 67.817 C 354.726 74.617 341.793 72.617 337.926 61.55 C 337.393 60.083 337.793 58.617 336.326 57.95 C 336.326 58.083 331.259 57.683 331.126 57.683 Z" style="stroke: rgba(0, 0, 0, 0.184);"></path>
    <path d="M 342.593 51.417 C 342.593 52.083 342.059 52.617 341.393 52.617 C 340.726 52.617 340.193 52.083 340.193 51.417 C 340.193 50.75 340.726 50.217 341.393 50.217 C 341.926 50.083 342.593 50.617 342.593 51.417" style="stroke: rgba(0, 0, 0, 0.184);"></path>
    <path d="M 352.726 71.683 L 352.726 77.817" style="stroke: rgba(0, 0, 0, 0.184);"></path>
    <path d="M 348.326 79.95 C 349.659 79.283 350.726 77.95 352.459 78.35" style="stroke: rgba(0, 0, 0, 0.184);"></path>
    <path d="M 352.726 83.017 L 352.726 78.35" style="stroke: rgba(0, 0, 0, 0.184);"></path>
    <path d="M 356.859 79.95 C 355.393 79.417 353.926 78.483 352.459 78.083" style="stroke: rgba(0, 0, 0, 0.184);"></path>
  </g>
</svg>
