<svg xmlns="http://www.w3.org/2000/svg" fill="#fff" stroke="#000" style="opacity:1;fill-rule:evenodd;fill-opacity:1;stroke-width:1;stroke-linecap:round;stroke-linejoin:round;stroke-miterlimit:4;stroke-dasharray:none;stroke-opacity:1" viewBox="0 0 45 45">
    <g>
        <path d="M 9.253 35.484 C 9.253 35.484 6.162 26.996 6.293 24.471 C 6.424 21.946 6.771 16.592 10.297 13.937 C 13.823 11.282 14.737 10.977 16.957 10.367 C 19.177 9.757 24.053 8.931 30.582 12.587 C 37.111 16.243 37.286 19.552 37.503 21.467 C 37.72 23.382 37.721 27.126 36.894 28.693 C 36.067 30.26 34.5 34.787 34.63 35.048 C 34.76 35.309 32.149 34.134 32.149 34.134 C 32.149 34.134 31.061 33.656 31.496 31.436 C 31.931 29.216 31.714 26.865 31.366 25.82 C 30.974 26.69 29.755 34.831 29.886 35.136 C 30.017 35.441 24.88 35.179 24.488 35.179 C 24.096 35.179 24.749 32.132 24.488 31.871 C 24.227 31.61 15.753 31.583 14.911 31.392 C 14.439 31.877 14.737 35.397 14.737 35.397 L 9.253 35.484 Z" style="fill:rgb(170, 190, 192)"/>
        <path d="M 27.056 23.948 C 27.056 23.948 24.075 24.955 22.355 24.732 C 20.635 24.509 17.904 23.996 17.262 22.077 C 16.62 20.158 16.721 18.729 17.436 17.114 C 18.151 15.499 20.256 13.975 21.746 13.85 C 23.236 13.725 27.176 15.314 27.437 16.751" style="stroke:rgb(0, 0, 0);fill:none"/>
        <ellipse cx="31.424" cy="19.75" rx="1.431" ry="1.431" style="stroke:none;fill:rgb(0, 0, 0)"/>
    </g>
</svg>
