<svg xmlns="http://www.w3.org/2000/svg" fill="#fff" stroke="#000" style="opacity:1;fill-rule:evenodd;fill-opacity:1;stroke-width:1;stroke-linecap:round;stroke-linejoin:round;stroke-miterlimit:4;stroke-dasharray:none;stroke-opacity:1" viewBox="0 0 45 45">
    <g style="fill:rgb(255, 233, 0)">
        <path d="M 14.49 42.833 C 14.49 42.833 12.983 13.222 13.958 10.828 C 14.933 8.434 10.459 12.115 10.187 11.161 C 9.915 10.207 11.515 5.678 12.332 4.929 C 13.149 4.18 12.617 2.869 12.617 2.869 C 12.617 2.869 13.412 4.254 14.263 4.322 C 15.114 4.39 15.888 3.772 16.433 2.75 C 16.978 1.728 17.737 6.26 17.305 9.618 C 16.873 12.976 16.605 23.178 17.716 24.011 C 18.827 24.844 28.828 23.548 29.846 24.937 C 30.864 26.326 31.143 26.511 31.143 27.808 C 31.143 29.105 30.587 42.716 30.217 42.623 C 29.847 42.53 27.365 43.029 27.318 42.614 C 27.271 42.199 27.873 34.117 27.411 34.071 C 26.949 34.025 18.701 33.285 18.409 33.57 C 18.117 33.855 17.852 42.568 17.575 42.752 C 17.298 42.936 14.573 42.845 14.49 42.833 Z"/>
        <ellipse cx="13.245" cy="6.537" rx="0.159" ry="0.159" style="fill:rgb(216, 216, 216);stroke:rgb(0, 0, 0);stroke-width:1px"/>
        <path fill="#000" stroke-width="0" d="M 22.185 24.377 C 22.48 24.337 22.993 24.333 23.334 24.441 C 23.659 24.544 24.008 24.697 24.196 24.984 C 24.411 25.313 24.529 26.038 24.452 26.388 C 24.391 26.663 24.155 26.839 23.973 26.995 C 23.801 27.142 23.632 27.256 23.398 27.314 C 23.119 27.383 22.65 27.391 22.377 27.314 C 22.149 27.25 21.936 27.043 21.834 26.963 C 21.779 26.92 21.783 26.923 21.738 26.867 C 21.65 26.757 21.405 26.498 21.323 26.261 C 21.235 26.004 21.201 25.649 21.259 25.367 C 21.318 25.085 21.498 24.731 21.674 24.569 C 21.819 24.436 21.966 24.407 22.185 24.377 Z M 29.208 29.395 C 29.441 29.355 29.93 29.308 30.229 29.395 C 30.511 29.478 30.819 29.642 30.964 29.874 C 31.114 30.115 31.124 30.485 31.091 30.832 C 31.053 31.231 30.864 31.89 30.676 32.141 C 30.55 32.31 30.432 32.347 30.229 32.396 C 29.949 32.464 29.375 32.49 29.08 32.396 C 28.841 32.32 28.682 32.208 28.538 31.981 C 28.342 31.674 28.085 30.994 28.154 30.577 C 28.221 30.18 28.684 29.699 28.889 29.523 C 29.009 29.419 29.057 29.421 29.208 29.395 Z M 15.252 28.936 C 15.503 28.886 16.152 28.835 16.529 28.936 C 16.88 29.029 17.264 29.185 17.454 29.478 C 17.667 29.806 17.736 30.491 17.646 30.883 C 17.565 31.231 17.355 31.564 17.039 31.745 C 16.666 31.958 15.888 32.049 15.443 31.936 C 15.043 31.835 14.64 31.528 14.454 31.202 C 14.268 30.878 14.231 30.349 14.326 29.989 C 14.419 29.638 14.821 29.223 14.996 29.063 C 15.097 28.972 15.114 28.963 15.252 28.936 Z M 15.852 22.59 C 16.062 22.563 16.314 22.57 16.554 22.654 C 16.833 22.751 17.253 22.948 17.416 23.196 C 17.571 23.433 17.606 23.804 17.544 24.09 C 17.478 24.39 17.266 24.786 17.001 24.952 C 16.728 25.123 16.234 25.165 15.916 25.08 C 15.609 24.997 15.283 24.742 15.118 24.473 C 14.95 24.201 14.875 23.744 14.926 23.452 C 14.972 23.19 15.171 22.924 15.341 22.781 C 15.488 22.658 15.662 22.614 15.852 22.59 Z M 14.907 16.793 C 15.218 16.764 15.785 16.769 16.024 16.984 C 16.266 17.202 16.392 17.791 16.343 18.102 C 16.301 18.372 16.091 18.591 15.865 18.772 C 15.609 18.976 15.162 19.241 14.843 19.219 C 14.536 19.197 14.143 18.918 13.981 18.676 C 13.831 18.452 13.809 18.114 13.854 17.846 C 13.9 17.571 14.078 17.224 14.269 17.048 C 14.439 16.89 14.653 16.816 14.907 16.793 Z M 15.66 10.259 C 15.927 10.242 16.422 10.249 16.65 10.451 C 16.893 10.666 17.06 11.229 17.033 11.568 C 17.008 11.884 16.794 12.255 16.554 12.43 C 16.315 12.605 15.885 12.666 15.596 12.622 C 15.324 12.58 15.018 12.429 14.862 12.207 C 14.693 11.965 14.613 11.485 14.671 11.185 C 14.724 10.905 14.965 10.604 15.15 10.451 C 15.303 10.324 15.452 10.273 15.66 10.259 Z M 22.756 30.824 C 23.025 30.774 23.271 30.786 23.514 30.885 C 23.784 30.995 24.122 31.309 24.287 31.506 C 24.409 31.653 24.456 31.76 24.499 31.93 C 24.549 32.132 24.584 32.413 24.529 32.657 C 24.469 32.923 24.342 33.272 24.12 33.461 C 23.884 33.661 23.429 33.742 23.12 33.794 C 22.849 33.839 22.607 33.858 22.362 33.794 C 22.106 33.727 21.796 33.562 21.62 33.385 C 21.461 33.226 21.373 33.018 21.317 32.809 C 21.259 32.594 21.227 32.35 21.286 32.112 C 21.354 31.842 21.522 31.491 21.756 31.279 C 22.003 31.054 22.445 30.882 22.756 30.824 Z"/>
        <path fill-opacity="0" d="M 28.9 27.223 C 28.9 27.223 33.292 27.147 34.018 24.091"/>
        <path d="M 16.624 4.848 C 17.036 4.641 17.392 4.666 17.892 4.666 C 18.076 4.666 19.431 4.259 19.431 4.259 C 19.431 4.259 19.304 4.65 19.295 4.666 C 19.102 5.054 18.504 5.66 18.254 6.161 C 18.064 6.54 16.941 6.179 16.941 6.885"/>
    </g>
</svg>
