<svg xmlns="http://www.w3.org/2000/svg" fill="#fff" stroke="#000" style="opacity:1;fill-rule:evenodd;fill-opacity:1;stroke-width:1;stroke-linecap:round;stroke-linejoin:round;stroke-miterlimit:4;stroke-dasharray:none;stroke-opacity:1" viewBox="0 0 45 45">
    <g>
        <path d="M 22.016 33.856 L 21.966 37.675" style="stroke:rgb(0, 0, 0);fill:none"/>
        <path d="M 20.257 36.218 C 20.257 36.218 21.991 34.736 23.624 36.067" style="stroke:rgb(0, 0, 0);fill:none"/>
        <path d="M 35.359 18.388 C 35.359 18.388 33.902 15.901 32.545 16.529 L 32.998 18.689 C 32.998 18.689 33.968 19.017 35.359 18.388 Z" style="stroke:rgb(0, 0, 0);fill:rgb(255, 212, 91)"/>
        <path d="M 20.4 11.212 C 20.4 11.212 19.194 12.924 21.847 14.6 L 23.386 13.061 C 23.386 13.061 22.766 11.672 20.4 11.212 Z" style="stroke:rgb(0, 0, 0);fill:rgb(245, 50, 50)"/>
        <path d="M 22.571 9.214 C 22.571 9.214 21.893 11.947 23.26 12.843 L 25.477 12.062 C 25.477 12.062 24.65 9.639 22.571 9.214 Z" style="stroke:rgb(0, 0, 0);fill:rgb(245, 50, 50)"/>
        <path d="M 25.086 8.053 C 25.086 8.053 24.558 10.569 25.465 11.809 L 29.279 12.682 C 29.279 12.682 27.016 7.1 25.086 8.053 Z" style="stroke:rgb(0, 0, 0);fill:rgb(245, 50, 50)"/>
        <path d="M 10.718 23.956 C 10.718 23.956 18.855 24.435 20.291 22.042 C 21.727 19.649 20.77 18.033 21.488 16.058 C 22.206 14.083 24.599 10.135 29.386 12.827 C 34.173 15.519 32.916 23.418 32.796 23.897 C 32.676 24.376 32.677 29.521 28.488 31.854 C 24.299 34.187 17.898 34.906 14.607 32.393 C 11.316 29.88 9.76 27.905 10.718 23.956 Z" style="stroke:rgb(0, 0, 0)"/>
        <ellipse cx="28.867" cy="16.344" rx="0.647" ry="0.647" style="stroke:none;fill:rgb(0, 0, 0)"/>
    </g>
</svg>
