<svg xmlns="http://www.w3.org/2000/svg" fill="#fff" stroke="#000" style="opacity:1;fill-rule:evenodd;fill-opacity:1;stroke-width:1;stroke-linecap:round;stroke-linejoin:round;stroke-miterlimit:4;stroke-dasharray:none;stroke-opacity:1" viewBox="0 0 45 45">
    <g>
        <path d="M 9.734 37.599 C 9.734 37.599 15.316 33.144 23.606 33.933 C 31.896 34.722 35.166 37.712 35.166 37.712 C 35.166 37.712 33.813 31.79 32.798 29.648 C 31.783 27.506 39.6 27.186 39.6 27.186 C 39.6 27.186 34.041 24.162 33.314 20.424 C 32.587 16.686 39.37 11.841 39.37 11.841 C 39.37 11.841 32.552 11.816 31.168 13.131 C 29.784 14.446 30.303 6.867 30.303 6.867 C 30.303 6.867 22.654 10.951 22.654 11.643 C 22.654 12.335 15.386 6.625 15.006 6.314 C 14.626 6.003 13.968 10.916 14.141 11.678 C 14.314 12.44 14.244 12.508 12.064 12.059 C 9.884 11.61 5.973 12.301 5.973 12.301 C 5.973 12.301 11.58 17.665 11.406 17.977 C 11.232 18.289 8.638 24.102 7.184 25.348 C 5.73 26.594 13.033 29.051 13.033 29.051 C 13.033 29.051 9.572 36.044 9.734 37.599 Z" style="stroke:rgb(0, 0, 0);fill:rgb(195, 132, 89)"/>
        <path d="M 14.66 24.447 C 14.66 24.447 13.691 19.429 16.529 17.387 C 19.367 15.345 21.893 14.722 25.388 15.726 C 28.883 16.73 29.957 19.464 30.13 20.987 C 30.303 22.51 30.822 24.621 29.541 27.251 C 28.26 29.881 25.388 30.712 25.146 30.885 C 24.904 31.058 22.377 32.096 20.543 31.508 C 18.709 30.92 16.909 30.677 16.044 28.877 C 15.179 27.077 14.833 25.14 14.66 24.447 Z" style="stroke:rgb(0, 0, 0);fill:rgb(245, 224, 111)"/>
        <path d="M 25.112 26.766 C 25.112 26.766 22.724 26.974 22.377 24.655 C 22.654 26.697 20.197 27.32 20.197 27.32" style="stroke:rgb(0, 0, 0);fill:none"/>
        <path d="M 21.374 26.801 C 21.374 26.801 22.239 28.497 23.762 26.835" style="stroke:rgb(0, 0, 0);fill:none"/>
        <ellipse cx="19.982" cy="21.558" rx="0.647" ry="0.647" style="stroke:none;fill:rgb(0, 0, 0)"/>
        <ellipse cx="25.059" cy="21.59" rx="0.647" ry="0.647" style="stroke:none;fill:rgb(0, 0, 0)"/>
    </g>
</svg>
