<?xml version="1.0" encoding="UTF-8" standalone="no"?>
<!DOCTYPE svg PUBLIC "-//W3C//DTD SVG 1.1//EN" "http://www.w3.org/Graphics/SVG/1.1/DTD/svg11.dtd">
<svg xmlns="http://www.w3.org/2000/svg" xmlns:bx="https://boxy-svg.com" version="1.1" viewBox="0 0 45 45">
    <defs>
        <bx:grid width="2.5" height="2.5" x="0" y="0"/>
    </defs>
    <g fill="var(--player-color,#fff)" stroke="var(--opponent-color,#000)" style="opacity:1;fill-opacity:1;fill-rule:evenodd;stroke-width:1.5;stroke-linecap:round;stroke-linejoin:round;stroke-miterlimit:4;stroke-dasharray:none;stroke-opacity:1" transform="translate(0,0.3)">
        <path d="M 11 10.211 L 11 5.211 L 15 5.211 L 15 7.211 L 20 7.211 L 20 5.211 L 25 5.211 L 25 7.211 L 30 7.211 L 30 5.211 L 34 5.211 L 34 10.211" style="stroke-linecap:butt"/>
        <path d="M 31 13.211 L 31 34.7 L 14 34.7 L 14 13.211" style="stroke-linecap:butt;stroke-linejoin:miter"/>
        <path d="M 34 10.211 L 31 13.411 L 14 13.411 L 11 10.211"/>
        <path d="M 31 29.5 L 32.5 36.21 L 12.5 36.21 L 14 29.5" style=""/>
        <path d="M 9.5 40.054 L 10.685 35.4 L 34.459 35.4 L 35.594 40.06 L 9.5 40.054 Z"/>
    </g>
</svg>
